PathFileType	4	(X/Y/Z)	T00_Trial_0-99.trc
DataRate	CameraRate	NumFrames	NumMarkers	Units	OrigDataRate	OrigDataStartFrame	OrigNumFrames
60	60	7	22	m	60	24	99
Frame#	Time	Hip			RHip			RKnee			RAnkle			RBigToe			RSmallToe			RHeel			LHip			LKnee			LAnkle			LBigToe			LSmallToe			LHeel			Neck			Head			Nose			RShoulder			RElbow			RWrist			LShoulder			LElbow			LWrist		
		X1	Y1	Z1	X2	Y2	Z2	X3	Y3	Z3	X4	Y4	Z4	X5	Y5	Z5	X6	Y6	Z6	X7	Y7	Z7	X8	Y8	Z8	X9	Y9	Z9	X10	Y10	Z10	X11	Y11	Z11	X12	Y12	Z12	X13	Y13	Z13	X14	Y14	Z14	X15	Y15	Z15	X16	Y16	Z16	X17	Y17	Z17	X18	Y18	Z18	X19	Y19	Z19	X20	Y20	Z20	X21	Y21	Z21	X22	Y22	Z22
24	0.4	-0.07141108100492778	0.9193041995533838	-1.2433698799662094	-0.0705363742643377	0.9347695164448202	-0.780280080000044	-0.22715829680159935	0.5096806269094752	-1.2303153432962721	-0.278894324101078	0.2387009562875797	-1.3195360723470444	-0.36758222810104024	0.13171980592552143	-1.1586726148018267	-0.3835823528171408	0.170121313135708	-1.2590898455120796	-0.2517841024387925	0.20715856222141266	-1.3704095497829614	0.018860230853217048	0.8702373046388743	-1.1990016992379373	-0.05598172685921849	0.48653326223016347	-1.0301256240373886	-0.020213999755120487	0.144680232893337	-1.1544874982958309	-0.08651161440115955	0.02607500969838281	-0.9356339052834949	-0.03371989038884448	0.02260197545068841	-0.979333493144132	-0.004010343502708262	0.09864215943299386	-1.198847308163512	0.1845552397204285	1.4195489713120644	-1.1658691495076121	0.0715994577399994	1.694205262153572	-1.1613653852308352	0.02347136299865214	1.526617789998355	-1.109980004470414	-0.010381096078579266	1.4294154099109229	-1.2740469908496366	-0.27683961091054	1.3660259806577482	-1.3355685139654268	-0.36732380308140644	1.4388261008710201	-1.1057440141125554	0.3041576805680932	1.2710484044849186	-1.1906471175210236	0.3358023595485295	0.9677820279660239	-1.1679862302251929	0.3368258440590757	0.7240002635477293	-1.1085791610153046
25	0.4166666666666667	-0.07319384000756693	0.9206399341735764	-1.2352274579989129	-0.0705363742643377	0.9347695164448202	-0.780280080000044	-0.22641679818604357	0.5096028942644882	-1.2309824027962823	-0.3172004674586806	0.23524015097582368	-1.2932561009230368	-0.40611830304723023	0.1340587339870583	-1.1273888423609464	-0.4234342087156664	0.1738618920715737	-1.2308647524320413	-0.2916273430526562	0.20200682688205102	-1.343480573730952	0.018069826967276843	0.870240753441554	-1.1908614070334416	-0.05717871278741629	0.483870106474121	-1.022803444686583	-0.019940652381811568	0.1440263937085474	-1.1539916754252793	-0.0741611876871993	0.03851679418044512	-0.9475167499879347	-0.025373627486131686	0.0332997241307243	-0.9893710022923287	-0.005078849052370732	0.10017234826882669	-1.1978882354335203	0.19122863990047703	1.4140656346669165	-1.1592511046787561	0.07161963470212213	1.6942030819078002	-1.161348325483053	0.02348116639599626	1.526614764027242	-1.109968712474753	-0.004334948822081113	1.4273398028622044	-1.2649955556421164	-0.27255893393168895	1.3729163568452936	-1.3290285027317692	-0.35975469881714617	1.4534770904852916	-1.1043768579666777	0.3080671040789404	1.2632205426513663	-1.1824780094691205	0.33617871076375805	0.9602434601428249	-1.1573392256220127	0.3341366078369628	0.7149309994666188	-1.0921439908447121
26	0.4333333333333333	-0.07606233323943502	0.921799138639288	-1.226835882117246	-0.0705363742643377	0.9347695164448202	-0.780280080000044	-0.22594635375020775	0.5095576299537041	-1.231383007161578	-0.3557103794183355	0.23386290070216376	-1.2685717228151732	-0.4448240043933145	0.1376112493447876	-1.099832692478845	-0.4615560347828022	0.17688867548697967	-1.2046510082607782	-0.33127181905630976	0.1989231720536237	-1.3174501325683041	0.015760237633492012	0.8698710879950288	-1.1823633691951894	-0.05830641142039481	0.4817294379010974	-1.0156478777538303	-0.019746454186601647	0.14275445745113827	-1.1539262135988195	-0.06128132453722856	0.04956439736504472	-0.9599353843138093	-0.017283333634521322	0.041754858147697985	-0.9997050875075595	-0.0059033850189119915	0.10029960292555906	-1.197578088781043	0.1970549976762213	1.4086038885953056	-1.1532225721527989	0.07163098450312429	1.694200948213307	-1.1613380169063445	0.02348547426779107	1.5266126261839719	-1.1099631845617868	0.0008663851681778614	1.4255063343059713	-1.2560590709521755	-0.2684687701123744	1.3793955538066829	-1.322191894759043	-0.3523131041683973	1.4670655360677043	-1.1012492678419656	0.31173293366264704	1.2555204679833827	-1.175417680760451	0.3369005949919571	0.9528893479826959	-1.1477628597758505	0.33168780864487124	0.7060653117899315	-1.076824229047037
27	0.45	-0.0799496005030961	0.9224990558222598	-1.2181273626322195	-0.0705363742643377	0.9347695164448202	-0.780280080000044	-0.22571473629911218	0.5095379813917571	-1.2315655286890947	-0.3938740708620297	0.23516721015959188	-1.245799330162406	-0.4837741989129939	0.14337410520673205	-1.0757538703004295	-0.49863968638817097	0.1806672488992053	-1.1801298502872504	-0.3705982843146277	0.1981426693200804	-1.2923813392727979	0.01193230749271573	0.868818907014863	-1.173426843525961	-0.059733830137505085	0.4802067103508623	-1.0088837409419544	-0.01998853358611427	0.14112373796943478	-1.1539505372883612	-0.04921156640029749	0.05831786588389753	-0.9719996521739583	-0.009554968377427723	0.047750215153493696	-1.0098447062170253	-0.006934870969898702	0.09907438037989158	-1.197796428074256	0.20217236163565486	1.403152976163592	-1.147540095320982	0.07163562802220962	1.6941994094510595	-1.1613332766954898	0.023486351223177715	1.5266114317965118	-1.1099615276189436	0.005727146779721052	1.4239179045504422	-1.247745091214691	-0.2642280875258003	1.3853651465123231	-1.315204672123116	-0.34517836408616226	1.479928577521695	-1.0967326733412421	0.31512188251595913	1.2478927778864715	-1.1693879279546688	0.33772842282267407	0.9456027571945573	-1.1390496870948699	0.3293361931732931	0.6973078670796298	-1.0629882753801432
28	0.4666666666666667	-0.08455342608649766	0.9227215924607769	-1.2091748510566405	-0.07053637426433769	0.9347695164448202	-0.780280080000044	-0.22564420141480962	0.5095342076028039	-1.231608781699098	-0.431014721538429	0.23928583679591142	-1.224983368592452	-0.5221769510682638	0.15191383069136433	-1.0539796036887192	-0.5347592319293544	0.18646955213839642	-1.1565191883411567	-0.40936562782688574	0.1999068853098022	-1.2685180514318521	0.006967759673936985	0.8670978621682779	-1.1641956882188058	-0.061667391420512904	0.4792224381766467	-1.0028466000315173	-0.02078714376961546	0.13955279723882166	-1.1538147221923203	-0.03887234750062536	0.064737877162448	-0.9829734484397618	-0.002557984487948191	0.05172033830648882	-1.0190070710525012	-0.008308329305481185	0.09724579885619229	-1.1984587659537664	0.20679651758849987	1.3976333776535221	-1.1420018306332413	0.0716362502580359	1.694198531468327	-1.1613321141240074	0.023485575269742726	1.52661094914006	-1.109961915696977	0.010770472335580589	1.4223884023054485	-1.2401540169346514	-0.25945955372207113	1.3907814839038393	-1.3081354475333788	-0.33867721807338064	1.4921264177942886	-1.0912822732475442	0.3182350705641186	1.2403331879319492	-1.164303532551524	0.338466152541184	0.9383437786460456	-1.1309837460310836	0.3270471476529582	0.6886215562044684	-1.0508332835917593
29	0.4833333333333333	-0.0894468284851207	0.922690498666419	-1.200350933232212	-0.07053637426433766	0.9347695164448202	-0.7802800800000439	-0.22565919214889177	0.5095380035031392	-1.2315828822597268	-0.4663925187328918	0.2459239362502673	-1.2058801712143865	-0.5588288280905412	0.16317232759881525	-1.033188154344085	-0.5694191871552132	0.1951114352278812	-1.1332785559318985	-0.44705287163623064	0.20446201816469348	-1.2462294274377779	0.0014660822185151347	0.8649887059171482	-1.1551492489550126	-0.06393934271684489	0.47862505144522094	-0.997886852823124	-0.02199145720051862	0.13848472172168852	-1.1534600742984074	-0.03105069644567204	0.06901794891895885	-0.9918257731888724	0.0029086437304601384	0.054145907264115105	-1.0261180946191717	-0.009825143278877154	0.09577244205702735	-1.1995056948192975	0.2111613112732286	1.3919778275780599	-1.1364095946286323	0.07163504460936618	1.6941981631547018	-1.1613327420940915	0.02348432636154	1.5266108905182127	-1.1099630432514036	0.01619142686034159	1.4207033895367418	-1.2329416735526395	-0.2538752539320597	1.395700973448654	-1.3009558540512838	-0.3329420353756966	1.5036532246002683	-1.085285385271982	0.32104281483883806	1.2329511639380846	-1.1600276658725859	0.3389702140056925	0.9310910589815664	-1.1234584607717808	0.32505644578176124	0.6801340031650459	-1.0404033239867072
30	0.5	-0.09424952689162729	0.9227304170628267	-1.1921170570611679	-0.0705363742643376	0.9347695164448201	-0.7802800800000437	-0.22570544162131184	0.5095438978221866	-1.2315354369223561	-0.49937754392384043	0.25453169627659783	-1.1880957557278107	-0.5928834368802046	0.1765783405129131	-1.0128512121286883	-0.6022576614640779	0.2067236524139274	-1.1104099861109245	-0.48294214626181714	0.21174448678714056	-1.2256631702695544	-0.004037114002468293	0.8629031899102118	-1.1469097794220513	-0.06603094512731433	0.47829315748668233	-0.9941563566951047	-0.02331994288252235	0.13822214715853556	-1.1528703663885853	-0.026212503287086693	0.07139003079127343	-0.997451116003281	0.006258421684486719	0.05544505704943476	-1.0301980543878606	-0.011193539424233692	0.09534261504134955	-1.2008322592739418	0.21551059324234173	1.3862151341552607	-1.1304666608227814	0.07163340971643603	1.6941981046120556	-1.1613339397626383	0.02348321919867124	1.5266110227559582	-1.1099641718250852	0.021777381434897037	1.418799117929712	-1.2256508377836148	-0.24752803385550023	1.4002871471684808	-1.2935390778702527	-0.3276619862487766	1.5146592953880473	-1.0790610220580608	0.3234691178412553	1.2258152668778017	-1.1562885114809829	0.33919961595034315	0.9237628132113053	-1.116522265622777	0.3236715442221336	0.6720063041077716	-1.0315765857832657
